<?xml version="1.0" encoding="UTF-8"?>
<svg width="391px" height="63px" viewBox="0 0 391 63" version="1.1"
  xmlns="http://www.w3.org/2000/svg"
  xmlns:xlink="http://www.w3.org/1999/xlink">
  <g id="logo" stroke="none" stroke-width="1" fill="none" fill-rule="evenodd">
    <path d="M34.336,48 L21.344,48 L10.912,32.704 L10.72,32.704 L10.72,48 L0.16,48 L0.16,-0.384 L10.72,-0.384 L10.72,29.056 L10.912,29.056 L21.088,16.128 L33.824,16.128 L21.536,30.528 L34.336,48 Z M56.3794286,34.112 L55.0354286,34.112 C53.8834228,34.112 52.7207678,34.1653328 51.5474286,34.272 C50.3740894,34.3786672 49.3287665,34.5813318 48.4114286,34.88 C47.4940907,35.1786682 46.7367649,35.6159971 46.1394286,36.192 C45.5420923,36.7680029 45.2434286,37.5253286 45.2434286,38.464 C45.2434286,39.0613363 45.3820939,39.5733312 45.6594286,40 C45.9367633,40.4266688 46.2887598,40.7679987 46.7154286,41.024 C47.1420974,41.2800013 47.6327591,41.4613328 48.1874286,41.568 C48.742098,41.6746672 49.275426,41.728 49.7874286,41.728 C51.9207726,41.728 53.5527563,41.1413392 54.6834286,39.968 C55.8141009,38.7946608 56.3794286,37.2053434 56.3794286,35.2 L56.3794286,34.112 Z M37.1154286,20.48 C38.9927713,18.687991 41.1794161,17.3440045 43.6754286,16.448 C46.1714411,15.5519955 48.7207489,15.104 51.3234286,15.104 C54.011442,15.104 56.2834193,15.4346634 58.1394286,16.096 C59.9954379,16.7573366 61.4994228,17.7813264 62.6514286,19.168 C63.8034343,20.5546736 64.6460926,22.3039894 65.1794286,24.416 C65.7127646,26.5280106 65.9794286,29.0346522 65.9794286,31.936 L65.9794286,48 L56.3794286,48 L56.3794286,44.608 L56.1874286,44.608 C55.3767579,45.9306733 54.1501035,46.954663 52.5074286,47.68 C50.8647537,48.405337 49.0834382,48.768 47.1634286,48.768 C45.8834222,48.768 44.5607687,48.597335 43.1954286,48.256 C41.8300884,47.914665 40.5821009,47.3600038 39.4514286,46.592 C38.3207563,45.8239962 37.3927655,44.8000064 36.6674286,43.52 C35.9420916,42.2399936 35.5794286,40.6613427 35.5794286,38.784 C35.5794286,36.4799885 36.2087556,34.624007 37.4674286,33.216 C38.7261015,31.807993 40.3474187,30.7200038 42.3314286,29.952 C44.3154385,29.1839962 46.5234164,28.6720013 48.9554286,28.416 C51.3874407,28.1599987 53.7554171,28.032 56.0594286,28.032 L56.0594286,27.52 C56.0594286,25.9413254 55.5047675,24.7786704 54.3954286,24.032 C53.2860897,23.2853296 51.92077,22.912 50.2994286,22.912 C48.8060878,22.912 47.3661022,23.2319968 45.9794286,23.872 C44.592755,24.5120032 43.4087668,25.2799955 42.4274286,26.176 L37.1154286,20.48 Z M94.2308571,24.704 C93.7615215,24.5759994 93.3028594,24.4906669 92.8548571,24.448 C92.4068549,24.4053331 91.9695259,24.384 91.5428571,24.384 C90.1348501,24.384 88.9508619,24.6399974 87.9908571,25.152 C87.0308523,25.6640026 86.26286,26.282663 85.6868571,27.008 C85.1108543,27.733337 84.6948584,28.5226624 84.4388571,29.376 C84.1828559,30.2293376 84.0548571,30.9759968 84.0548571,31.616 L84.0548571,48 L73.5588571,48 L73.5588571,16.128 L83.6708571,16.128 L83.6708571,20.736 L83.7988571,20.736 C84.6095279,19.1146586 85.7615163,17.7920051 87.2548571,16.768 C88.7481979,15.7439949 90.4761807,15.232 92.4388571,15.232 C92.8655259,15.232 93.2815218,15.2533331 93.6868571,15.296 C94.0921925,15.3386669 94.4228559,15.4026662 94.6788571,15.488 L94.2308571,24.704 Z M131.314286,44.992 C131.314286,48.1066822 130.86629,50.8159885 129.970286,53.12 C129.074281,55.4240115 127.815627,57.3333258 126.194286,58.848 C124.572944,60.3626742 122.599631,61.4933296 120.274286,62.24 C117.948941,62.9866704 115.3783,63.36 112.562286,63.36 C109.746272,63.36 106.855634,62.9333376 103.890286,62.08 C100.924938,61.2266624 98.3542966,59.9893414 96.1782857,58.368 L101.426286,50.88 C102.962293,52.2453402 104.658276,53.2586634 106.514286,53.92 C108.370295,54.5813366 110.194277,54.912 111.986286,54.912 C115.058301,54.912 117.330278,54.1013414 118.802286,52.48 C120.274293,50.8586586 121.010286,48.7040134 121.010286,46.016 L121.010286,44.096 L120.818286,44.096 C119.836947,45.3760064 118.514294,46.3999962 116.850286,47.168 C115.186277,47.9360038 113.28763,48.32 111.154286,48.32 C108.722274,48.32 106.567628,47.882671 104.690286,47.008 C102.812943,46.133329 101.223626,44.9493408 99.9222857,43.456 C98.6209459,41.9626592 97.6289558,40.2240099 96.9462857,38.24 C96.2636156,36.2559901 95.9222857,34.1546778 95.9222857,31.936 C95.9222857,29.7173222 96.2636156,27.6053434 96.9462857,25.6 C97.6289558,23.5946566 98.6209459,21.8240077 99.9222857,20.288 C101.223626,18.7519923 102.812943,17.5253379 104.690286,16.608 C106.567628,15.6906621 108.70094,15.232 111.090286,15.232 C113.095629,15.232 115.01561,15.6373293 116.850286,16.448 C118.684962,17.2586707 120.156947,18.5173248 121.266286,20.224 L121.394286,20.224 L121.394286,16.128 L131.314286,16.128 L131.314286,44.992 Z M121.330286,31.872 C121.330286,30.805328 121.148954,29.7813382 120.786286,28.8 C120.423617,27.8186618 119.900956,26.9546704 119.218286,26.208 C118.535616,25.4613296 117.724957,24.8746688 116.786286,24.448 C115.847614,24.0213312 114.780958,23.808 113.586286,23.808 C112.391613,23.808 111.335624,24.0213312 110.418286,24.448 C109.500948,24.8746688 108.722289,25.450663 108.082286,26.176 C107.442283,26.901337 106.951621,27.7546618 106.610286,28.736 C106.268951,29.7173382 106.098286,30.7626611 106.098286,31.872 C106.098286,32.938672 106.268951,33.9626618 106.610286,34.944 C106.951621,35.9253382 107.442283,36.7893296 108.082286,37.536 C108.722289,38.2826704 109.500948,38.8799978 110.418286,39.328 C111.335624,39.7760022 112.391613,40 113.586286,40 C114.780958,40 115.858281,39.7760022 116.818286,39.328 C117.778291,38.8799978 118.588949,38.293337 119.250286,37.568 C119.911622,36.842663 120.423617,35.9893382 120.786286,35.008 C121.148954,34.0266618 121.330286,32.9813389 121.330286,31.872 Z M173.197714,31.936 C173.197714,34.5386797 172.728386,36.8959894 171.789714,39.008 C170.851043,41.1200106 169.571056,42.9119926 167.949714,44.384 C166.328373,45.8560074 164.451058,46.9973293 162.317714,47.808 C160.18437,48.6186707 157.901726,49.024 155.469714,49.024 C153.080369,49.024 150.808392,48.6186707 148.653714,47.808 C146.499037,46.9973293 144.621722,45.8560074 143.021714,44.384 C141.421706,42.9119926 140.152386,41.1200106 139.213714,39.008 C138.275043,36.8959894 137.805714,34.5386797 137.805714,31.936 C137.805714,29.3333203 138.275043,26.9866771 139.213714,24.896 C140.152386,22.8053229 141.421706,21.0346739 143.021714,19.584 C144.621722,18.1333261 146.499037,17.0240038 148.653714,16.256 C150.808392,15.4879962 153.080369,15.104 155.469714,15.104 C157.901726,15.104 160.18437,15.4879962 162.317714,16.256 C164.451058,17.0240038 166.328373,18.1333261 167.949714,19.584 C169.571056,21.0346739 170.851043,22.8053229 171.789714,24.896 C172.728386,26.9866771 173.197714,29.3333203 173.197714,31.936 Z M163.085714,31.936 C163.085714,30.9119949 162.915049,29.9093382 162.573714,28.928 C162.232379,27.9466618 161.741717,27.0826704 161.101714,26.336 C160.461711,25.5893296 159.672386,24.9813357 158.733714,24.512 C157.795043,24.0426643 156.707054,23.808 155.469714,23.808 C154.232375,23.808 153.144386,24.0426643 152.205714,24.512 C151.267043,24.9813357 150.488384,25.5893296 149.869714,26.336 C149.251045,27.0826704 148.781716,27.9466618 148.461714,28.928 C148.141713,29.9093382 147.981714,30.9119949 147.981714,31.936 C147.981714,32.9600051 148.141713,33.9626618 148.461714,34.944 C148.781716,35.9253382 149.261711,36.8106627 149.901714,37.6 C150.541717,38.3893373 151.331043,39.0186643 152.269714,39.488 C153.208386,39.9573357 154.296375,40.192 155.533714,40.192 C156.771054,40.192 157.859043,39.9573357 158.797714,39.488 C159.736386,39.0186643 160.525711,38.3893373 161.165714,37.6 C161.805717,36.8106627 162.285713,35.9253382 162.605714,34.944 C162.925716,33.9626618 163.085714,32.9600051 163.085714,31.936 Z" id="kargo" fill="#111111"></path>
    <path d="M215.616,31.936 C215.616,34.1546778 215.27467,36.2879898 214.592,38.336 C213.90933,40.3840102 212.91734,42.1866589 211.616,43.744 C210.31466,45.3013411 208.725343,46.5493286 206.848,47.488 C204.970657,48.4266714 202.837345,48.896 200.448,48.896 C198.314656,48.896 196.298676,48.458671 194.4,47.584 C192.501324,46.709329 191.040005,45.4613414 190.016,43.84 L189.888,43.84 L189.888,48 L180.224,48 L180.224,-0.384 L190.72,-0.384 L190.72,19.52 L190.848,19.52 C191.744004,18.453328 193.002659,17.4720045 194.624,16.576 C196.245341,15.6799955 198.229322,15.232 200.576,15.232 C202.880012,15.232 204.959991,15.6799955 206.816,16.576 C208.672009,17.4720045 210.25066,18.6879923 211.552,20.224 C212.85334,21.7600077 213.855996,23.5413232 214.56,25.568 C215.264004,27.5946768 215.616,29.7173222 215.616,31.936 Z M205.504,31.936 C205.504,30.9119949 205.344002,29.9093382 205.024,28.928 C204.703998,27.9466618 204.224003,27.0826704 203.584,26.336 C202.943997,25.5893296 202.154671,24.9813357 201.216,24.512 C200.277329,24.0426643 199.18934,23.808 197.952,23.808 C196.757327,23.808 195.690671,24.0426643 194.752,24.512 C193.813329,24.9813357 193.013337,25.5999962 192.352,26.368 C191.690663,27.1360038 191.178668,28.0106618 190.816,28.992 C190.453332,29.9733382 190.272,30.9759949 190.272,32 C190.272,33.0240051 190.453332,34.0266618 190.816,35.008 C191.178668,35.9893382 191.690663,36.8639962 192.352,37.632 C193.013337,38.4000038 193.813329,39.0186643 194.752,39.488 C195.690671,39.9573357 196.757327,40.192 197.952,40.192 C199.18934,40.192 200.277329,39.9573357 201.216,39.488 C202.154671,39.0186643 202.943997,38.4000038 203.584,37.632 C204.224003,36.8639962 204.703998,35.9786717 205.024,34.976 C205.344002,33.9733283 205.504,32.9600051 205.504,31.936 Z M243.035429,48 L243.035429,43.584 L242.907429,43.584 C242.523427,44.309337 242.022098,44.9919968 241.403429,45.632 C240.784759,46.2720032 240.059433,46.8266643 239.227429,47.296 C238.395424,47.7653357 237.4781,48.1493318 236.475429,48.448 C235.472757,48.7466682 234.416767,48.896 233.307429,48.896 C231.174085,48.896 229.371436,48.5120038 227.899429,47.744 C226.427421,46.9759962 225.232766,45.9840061 224.315429,44.768 C223.398091,43.5519939 222.736764,42.1653411 222.331429,40.608 C221.926093,39.0506589 221.723429,37.4613414 221.723429,35.84 L221.723429,16.128 L232.283429,16.128 L232.283429,33.408 C232.283429,34.3040045 232.347428,35.1573293 232.475429,35.968 C232.603429,36.7786707 232.84876,37.5039968 233.211429,38.144 C233.574097,38.7840032 234.054092,39.2853315 234.651429,39.648 C235.248765,40.0106685 236.03809,40.192 237.019429,40.192 C238.854104,40.192 240.251424,39.5093402 241.211429,38.144 C242.171433,36.7786598 242.651429,35.1786758 242.651429,33.344 L242.651429,16.128 L253.147429,16.128 L253.147429,48 L243.035429,48 Z M281.782857,24.704 C281.313521,24.5759994 280.854859,24.4906669 280.406857,24.448 C279.958855,24.4053331 279.521526,24.384 279.094857,24.384 C277.68685,24.384 276.502862,24.6399974 275.542857,25.152 C274.582852,25.6640026 273.81486,26.282663 273.238857,27.008 C272.662854,27.733337 272.246858,28.5226624 271.990857,29.376 C271.734856,30.2293376 271.606857,30.9759968 271.606857,31.616 L271.606857,48 L261.110857,48 L261.110857,16.128 L271.222857,16.128 L271.222857,20.736 L271.350857,20.736 C272.161528,19.1146586 273.313516,17.7920051 274.806857,16.768 C276.300198,15.7439949 278.028181,15.232 279.990857,15.232 C280.417526,15.232 280.833522,15.2533331 281.238857,15.296 C281.644193,15.3386669 281.974856,15.4026662 282.230857,15.488 L281.782857,24.704 Z M304.018286,34.112 L302.674286,34.112 C301.52228,34.112 300.359625,34.1653328 299.186286,34.272 C298.012947,34.3786672 296.967624,34.5813318 296.050286,34.88 C295.132948,35.1786682 294.375622,35.6159971 293.778286,36.192 C293.180949,36.7680029 292.882286,37.5253286 292.882286,38.464 C292.882286,39.0613363 293.020951,39.5733312 293.298286,40 C293.57562,40.4266688 293.927617,40.7679987 294.354286,41.024 C294.780955,41.2800013 295.271616,41.4613328 295.826286,41.568 C296.380955,41.6746672 296.914283,41.728 297.426286,41.728 C299.55963,41.728 301.191613,41.1413392 302.322286,39.968 C303.452958,38.7946608 304.018286,37.2053434 304.018286,35.2 L304.018286,34.112 Z M284.754286,20.48 C286.631628,18.687991 288.818273,17.3440045 291.314286,16.448 C293.810298,15.5519955 296.359606,15.104 298.962286,15.104 C301.650299,15.104 303.922276,15.4346634 305.778286,16.096 C307.634295,16.7573366 309.13828,17.7813264 310.290286,19.168 C311.442291,20.5546736 312.28495,22.3039894 312.818286,24.416 C313.351622,26.5280106 313.618286,29.0346522 313.618286,31.936 L313.618286,48 L304.018286,48 L304.018286,44.608 L303.826286,44.608 C303.015615,45.9306733 301.788961,46.954663 300.146286,47.68 C298.503611,48.405337 296.722295,48.768 294.802286,48.768 C293.522279,48.768 292.199626,48.597335 290.834286,48.256 C289.468946,47.914665 288.220958,47.3600038 287.090286,46.592 C285.959613,45.8239962 285.031623,44.8000064 284.306286,43.52 C283.580949,42.2399936 283.218286,40.6613427 283.218286,38.784 C283.218286,36.4799885 283.847613,34.624007 285.106286,33.216 C286.364959,31.807993 287.986276,30.7200038 289.970286,29.952 C291.954296,29.1839962 294.162274,28.6720013 296.594286,28.416 C299.026298,28.1599987 301.394274,28.032 303.698286,28.032 L303.698286,27.52 C303.698286,25.9413254 303.143625,24.7786704 302.034286,24.032 C300.924947,23.2853296 299.559627,22.912 297.938286,22.912 C296.444945,22.912 295.004959,23.2319968 293.618286,23.872 C292.231612,24.5120032 291.047624,25.2799955 290.066286,26.176 L284.754286,20.48 Z M345.325714,48 L345.325714,43.84 L345.197714,43.84 C344.173709,45.4613414 342.71239,46.709329 340.813714,47.584 C338.915038,48.458671 336.899058,48.896 334.765714,48.896 C332.376369,48.896 330.243057,48.4266714 328.365714,47.488 C326.488372,46.5493286 324.899054,45.3013411 323.597714,43.744 C322.296374,42.1866589 321.304384,40.3840102 320.621714,38.336 C319.939044,36.2879898 319.597714,34.1546778 319.597714,31.936 C319.597714,29.7173222 319.949711,27.5946768 320.653714,25.568 C321.357718,23.5413232 322.360374,21.7600077 323.661714,20.224 C324.963054,18.6879923 326.541705,17.4720045 328.397714,16.576 C330.253724,15.6799955 332.333703,15.232 334.637714,15.232 C336.984393,15.232 338.968373,15.6799955 340.589714,16.576 C342.211056,17.4720045 343.46971,18.453328 344.365714,19.52 L344.493714,19.52 L344.493714,-0.384 L354.989714,-0.384 L354.989714,48 L345.325714,48 Z M344.941714,32 C344.941714,30.9759949 344.760383,29.9733382 344.397714,28.992 C344.035046,28.0106618 343.523051,27.1360038 342.861714,26.368 C342.200378,25.5999962 341.400386,24.9813357 340.461714,24.512 C339.523043,24.0426643 338.456387,23.808 337.261714,23.808 C336.024375,23.808 334.936386,24.0426643 333.997714,24.512 C333.059043,24.9813357 332.269717,25.5893296 331.629714,26.336 C330.989711,27.0826704 330.509716,27.9466618 330.189714,28.928 C329.869713,29.9093382 329.709714,30.9119949 329.709714,31.936 C329.709714,32.9600051 329.869713,33.9733283 330.189714,34.976 C330.509716,35.9786717 330.989711,36.8639962 331.629714,37.632 C332.269717,38.4000038 333.059043,39.0186643 333.997714,39.488 C334.936386,39.9573357 336.024375,40.192 337.261714,40.192 C338.456387,40.192 339.523043,39.9573357 340.461714,39.488 C341.400386,39.0186643 342.200378,38.4000038 342.861714,37.632 C343.523051,36.8639962 344.035046,35.9893382 344.397714,35.008 C344.760383,34.0266618 344.941714,33.0240051 344.941714,32 Z M381.897143,34.112 L380.553143,34.112 C379.401137,34.112 378.238482,34.1653328 377.065143,34.272 C375.891804,34.3786672 374.846481,34.5813318 373.929143,34.88 C373.011805,35.1786682 372.254479,35.6159971 371.657143,36.192 C371.059807,36.7680029 370.761143,37.5253286 370.761143,38.464 C370.761143,39.0613363 370.899808,39.5733312 371.177143,40 C371.454478,40.4266688 371.806474,40.7679987 372.233143,41.024 C372.659812,41.2800013 373.150473,41.4613328 373.705143,41.568 C374.259812,41.6746672 374.79314,41.728 375.305143,41.728 C377.438487,41.728 379.070471,41.1413392 380.201143,39.968 C381.331815,38.7946608 381.897143,37.2053434 381.897143,35.2 L381.897143,34.112 Z M362.633143,20.48 C364.510486,18.687991 366.69713,17.3440045 369.193143,16.448 C371.689155,15.5519955 374.238463,15.104 376.841143,15.104 C379.529156,15.104 381.801134,15.4346634 383.657143,16.096 C385.513152,16.7573366 387.017137,17.7813264 388.169143,19.168 C389.321149,20.5546736 390.163807,22.3039894 390.697143,24.416 C391.230479,26.5280106 391.497143,29.0346522 391.497143,31.936 L391.497143,48 L381.897143,48 L381.897143,44.608 L381.705143,44.608 C380.894472,45.9306733 379.667818,46.954663 378.025143,47.68 C376.382468,48.405337 374.601152,48.768 372.681143,48.768 C371.401136,48.768 370.078483,48.597335 368.713143,48.256 C367.347803,47.914665 366.099815,47.3600038 364.969143,46.592 C363.838471,45.8239962 362.91048,44.8000064 362.185143,43.52 C361.459806,42.2399936 361.097143,40.6613427 361.097143,38.784 C361.097143,36.4799885 361.72647,34.624007 362.985143,33.216 C364.243816,31.807993 365.865133,30.7200038 367.849143,29.952 C369.833153,29.1839962 372.041131,28.6720013 374.473143,28.416 C376.905155,28.1599987 379.273131,28.032 381.577143,28.032 L381.577143,27.52 C381.577143,25.9413254 381.022482,24.7786704 379.913143,24.032 C378.803804,23.2853296 377.438484,22.912 375.817143,22.912 C374.323802,22.912 372.883816,23.2319968 371.497143,23.872 C370.110469,24.5120032 368.926481,25.2799955 367.945143,26.176 L362.633143,20.48 Z" id="burada" fill="#CE610B"></path>
  </g>
</svg>
