<?xml version="1.0" encoding="UTF-8"?>
<svg width="328px" height="104px" viewBox="0 0 328 104" version="1.1" xmlns="http://www.w3.org/2000/svg" xmlns:xlink="http://www.w3.org/1999/xlink">
    <!-- Generator: Sketch 52.3 (67297) - http://www.bohemiancoding.com/sketch -->
    <title>Artboard</title>
    <desc>Created with Sketch.</desc>
    <defs>
        <linearGradient x1="50%" y1="0%" x2="87.3782468%" y2="100%" id="linearGradient-1">
            <stop stop-color="#5F9CFE" offset="0%"></stop>
            <stop stop-color="#0936FF" offset="100%"></stop>
        </linearGradient>
        <polygon id="path-2" points="0.25 14.038 210.25 14.038 210.25 64.5381 0.25 64.5381"></polygon>
    </defs>
    <g id="Artboard" stroke="none" stroke-width="1" fill="none" fill-rule="evenodd">
        <g id="Logo" transform="translate(3.000000, 6.000000)">
            <g id="Symbol" transform="translate(0.000000, 0.013600)">
                <path d="M0.5,77.2381 L0.5,27.2381 L42.5,0.5381 L42.5,18.0381 M60,24.3881 L60,6.8881 L42.5,18.0381 L18,33.6381 L18,55.6381 M60,24.3881 L77.5,13.2381 L77.5,63.2381 L35.5,89.9881 L35.5,39.9881 L60,24.3881 Z" id="Combined-Shape" stroke="url(#linearGradient-1)" stroke-width="6" stroke-linecap="round"></path>
                <polygon id="Fill-1" fill="url(#linearGradient-1)" points="62.5 51.7881 62.5 44.2881 52.75 50.4881 52.75 57.9881"></polygon>
            </g>
            <g id="Type" transform="translate(111.000000, 14.013600)">
                <mask id="mask-3" fill="white">
                    <use xlink:href="#path-2"></use>
                </mask>
                <g id="Clip-7"></g>
                <g id="Group" mask="url(#mask-3)" fill="#1F1E68">
                    <g transform="translate(0.000000, 3.000000)" id="Muhsis">
                        <path d="M41.1,12.7881 L41.1,46.9881 C41.1,47.4214355 40.9500015,47.7880985 40.65,48.0881 C40.3499985,48.3881015 40.000002,48.5381 39.6,48.5381 L35.65,48.5381 C35.2166645,48.5381 34.8500015,48.3881015 34.55,48.0881 C34.2499985,47.7880985 34.1,47.4214355 34.1,46.9881 L34.1,31.5881 C34.1,31.1547645 34.0083343,30.8964337 33.825,30.8131 C33.6416658,30.7297662 33.416668,30.8714315 33.15,31.2381 L23.65,42.5881 C23.383332,42.921435 23.0583352,43.0881 22.675,43.0881 C22.2916648,43.0881 21.966668,42.921435 21.7,42.5881 L12.25,31.2381 C11.983332,30.904765 11.750001,30.771433 11.55,30.8381 C11.349999,30.904767 11.25,31.1547645 11.25,31.5881 L11.25,46.9881 C11.25,47.4214355 11.1000015,47.7880985 10.8,48.0881 C10.4999985,48.3881015 10.1333355,48.5381 9.7,48.5381 L5.8,48.5381 C5.3666645,48.5381 5.0000015,48.3881015 4.7,48.0881 C4.3999985,47.7880985 4.25,47.4214355 4.25,46.9881 L4.25,12.7881 C4.25,12.3547645 4.449998,12.104767 4.85,12.0381 C5.250002,11.971433 5.583332,12.104765 5.85,12.4381 L21.65,31.9381 C21.916668,32.2381015 22.249998,32.3881 22.65,32.3881 C23.050002,32.3881 23.383332,32.2381015 23.65,31.9381 L39.5,12.4381 C39.766668,12.104765 40.099998,11.971433 40.5,12.0381 C40.900002,12.104767 41.1,12.3547645 41.1,12.7881 Z M58.4,48.0881 C56.39999,47.3214295 54.7500065,46.2881065 53.45,44.9881 C52.049993,43.65476 50.983337,42.0381095 50.25,40.1381 C49.516663,38.271424 49.15,36.1547785 49.15,33.7881 L49.15,13.5381 C49.15,13.1047645 49.2999985,12.7381015 49.6,12.4381 C49.9000015,12.1380985 50.249998,11.9881 50.65,11.9881 L54.6,11.9881 C55.0333355,11.9881 55.3999985,12.1380985 55.7,12.4381 C56.0000015,12.7381015 56.15,13.1047645 56.15,13.5381 L56.15,33.7381 C56.15,35.5714425 56.449997,37.088094 57.05,38.2881 C57.650003,39.4547725 58.383329,40.404763 59.25,41.1381 C60.183338,41.871437 61.1333285,42.3547655 62.1,42.5881 C62.633336,42.721434 63.1249978,42.821433 63.575,42.8881 C64.0250023,42.954767 64.449998,42.9881 64.85,42.9881 C65.583337,42.9881 66.483328,42.854768 67.55,42.5881 C68.5833385,42.3547655 69.533329,41.871437 70.4,41.1381 C71.3000045,40.4380965 72.049997,39.488106 72.65,38.2881 C73.250003,37.088094 73.55,35.5714425 73.55,33.7381 L73.55,13.5381 C73.55,13.1047645 73.6999985,12.7381015 74,12.4381 C74.3000015,12.1380985 74.6666645,11.9881 75.1,11.9881 L79,11.9881 C79.4333355,11.9881 79.7999985,12.1380985 80.1,12.4381 C80.4000015,12.7381015 80.55,13.1047645 80.55,13.5381 L80.55,33.7881 C80.55,34.9547725 80.4583343,36.0630947 80.275,37.1131 C80.0916658,38.1631052 79.8166685,39.1714285 79.45,40.1381 C78.716663,42.004776 77.6666735,43.6214265 76.3,44.9881 C74.96666,46.2881065 73.3166765,47.3214295 71.35,48.0881 C69.4499905,48.821437 67.2833455,49.1881 64.85,49.1881 C62.4166545,49.1881 60.266676,48.821437 58.4,48.0881 Z M120.55,13.4881 L120.55,46.9881 C120.55,47.4214355 120.400001,47.7880985 120.1,48.0881 C119.799999,48.3881015 119.433335,48.5381 119,48.5381 L115.1,48.5381 C114.666665,48.5381 114.300002,48.3881015 114,48.0881 C113.699999,47.7880985 113.55,47.4214355 113.55,46.9881 L113.55,35.5381 C113.55,35.1047645 113.400002,34.7381015 113.1,34.4381 C112.799998,34.1380985 112.433335,33.9881 112,33.9881 L97.05,33.9881 C96.6166645,33.9881 96.2500015,34.1380985 95.95,34.4381 C95.6499985,34.7381015 95.5,35.1047645 95.5,35.5381 L95.5,46.9881 C95.5,47.4214355 95.3500015,47.7880985 95.05,48.0881 C94.7499985,48.3881015 94.3833355,48.5381 93.95,48.5381 L90.05,48.5381 C89.6166645,48.5381 89.2500015,48.3881015 88.95,48.0881 C88.6499985,47.7880985 88.5,47.4214355 88.5,46.9881 L88.5,13.4881 C88.5,13.0547645 88.6499985,12.6881015 88.95,12.3881 C89.2500015,12.0880985 89.6166645,11.9381 90.05,11.9381 L93.95,11.9381 C94.3833355,11.9381 94.7499985,12.0880985 95.05,12.3881 C95.3500015,12.6881015 95.5,13.0547645 95.5,13.4881 L95.5,26.2381 C95.5,26.6714355 95.6499985,27.0380985 95.95,27.3381 C96.2500015,27.6381015 96.6166645,27.7881 97.05,27.7881 L112,27.7881 C112.433335,27.7881 112.799998,27.6381015 113.1,27.3381 C113.400002,27.0380985 113.55,26.6714355 113.55,26.2381 L113.55,13.4881 C113.55,13.0547645 113.699999,12.6881015 114,12.3881 C114.300002,12.0880985 114.666665,11.9381 115.1,11.9381 L119,11.9381 C119.433335,11.9381 119.799999,12.0880985 120.1,12.3881 C120.400001,12.6881015 120.55,13.0547645 120.55,13.4881 Z M127.95,42.4881 L130.05,39.3881 C130.283334,39.0214315 130.599998,38.804767 131,38.7381 C131.400002,38.671433 131.783332,38.7547655 132.15,38.9881 C133.650008,39.921438 135.116659,40.72143 136.55,41.3881 C138.45001,42.321438 140.499989,42.7881 142.7,42.7881 C143.833339,42.7881 144.833329,42.6381015 145.7,42.3381 C146.500004,42.1047655 147.23333,41.7381025 147.9,41.2381 C148.500003,40.771431 148.949998,40.2547695 149.25,39.6881 C149.550002,39.154764 149.7,38.588103 149.7,37.9881 C149.7,37.2880965 149.466669,36.6547695 149,36.0881 C148.566665,35.621431 147.966671,35.2047685 147.2,34.8381 C146.833332,34.6714325 146.433335,34.521434 146,34.3881 C145.566665,34.254766 145.083336,34.121434 144.55,33.9881 C144.049998,33.854766 143.541669,33.7381005 143.025,33.6381 C142.508331,33.5380995 141.96667,33.4381005 141.4,33.3381 C141.033332,33.271433 140.633336,33.1964337 140.2,33.1131 C139.766665,33.0297662 139.316669,32.9381005 138.85,32.8381 C137.883329,32.704766 136.883339,32.4547685 135.85,32.0881 C134.783328,31.7880985 133.766672,31.371436 132.8,30.8381 C131.799995,30.3380975 130.900004,29.688104 130.1,28.8881 C129.299996,28.154763 128.650002,27.221439 128.15,26.0881 C127.683331,24.9880945 127.45,23.7214405 127.45,22.2881 C127.45,20.1880895 127.883329,18.404774 128.75,16.9381 C129.583337,15.5714265 130.683327,14.454771 132.05,13.5881 C133.350007,12.8214295 134.849992,12.2547685 136.55,11.8881 C138.116675,11.554765 139.716659,11.3881 141.35,11.3881 C142.883341,11.3881 144.249994,11.488099 145.45,11.6881 C146.050003,11.7881005 146.624997,11.9130992 147.175,12.0631 C147.725003,12.2131007 148.266664,12.3714325 148.8,12.5381 C149.333336,12.738101 149.849998,12.9630987 150.35,13.2131 C150.850003,13.4631012 151.333331,13.721432 151.8,13.9881 C152.133335,14.188101 152.449998,14.388099 152.75,14.5881 C153.050002,14.788101 153.383331,14.988099 153.75,15.1881 C154.116669,15.454768 154.333333,15.788098 154.4,16.1881 C154.466667,16.588102 154.366668,16.9714315 154.1,17.3381 L152,20.3381 C151.733332,20.7047685 151.391669,20.921433 150.975,20.9881 C150.558331,21.054767 150.166669,20.9714345 149.8,20.7381 C148.499994,19.9047625 147.266673,19.2714355 146.1,18.8381 C144.533325,18.2047635 142.850009,17.8881 141.05,17.8881 C140.749999,17.8881 140.425002,17.9047665 140.075,17.9381 C139.724998,17.9714335 139.366669,18.021433 139,18.0881 C138.23333,18.2547675 137.500004,18.504765 136.8,18.8381 C136.466665,19.0047675 136.158335,19.188099 135.875,19.3881 C135.591665,19.588101 135.333335,19.821432 135.1,20.0881 C134.666665,20.621436 134.45,21.254763 134.45,21.9881 C134.45,22.721437 134.716664,23.3380975 135.25,23.8381 C135.783336,24.3381025 136.466663,24.754765 137.3,25.0881 C137.733336,25.2547675 138.174998,25.404766 138.625,25.5381 C139.075002,25.671434 139.549998,25.804766 140.05,25.9381 C140.550003,26.071434 141.041664,26.1880995 141.525,26.2881 C142.008336,26.3881005 142.483331,26.504766 142.95,26.6381 C143.316669,26.704767 143.699998,26.7880995 144.1,26.8881 C144.500002,26.9881005 144.933331,27.071433 145.4,27.1381 C145.866669,27.204767 146.349998,27.2964327 146.85,27.4131 C147.350003,27.5297672 147.849998,27.6714325 148.35,27.8381 C148.616668,27.904767 148.891665,27.9880995 149.175,28.0881 C149.458335,28.1881005 149.733332,28.2880995 150,28.3881 C150.400002,28.5547675 150.858331,28.771432 151.375,29.0381 C151.891669,29.304768 152.333332,29.571432 152.7,29.8381 C152.966668,30.0047675 153.208332,30.1797657 153.425,30.3631 C153.641668,30.5464342 153.849999,30.738099 154.05,30.9381 C154.883338,31.7714375 155.516665,32.7380945 155.95,33.8381 C156.450003,35.0047725 156.7,36.4047585 156.7,38.0381 C156.7,39.904776 156.36667,41.5547595 155.7,42.9881 C155.03333,44.388107 154.08334,45.5380955 152.85,46.4381 C151.583327,47.4047715 150.116675,48.1047645 148.45,48.5381 C146.683325,49.004769 144.80001,49.2381 142.8,49.2381 C140.866657,49.2381 139.18334,49.0881015 137.75,48.7881 C136.383327,48.5547655 135.066673,48.171436 133.8,47.6381 C133.199997,47.4047655 132.61667,47.1464347 132.05,46.8631 C131.483331,46.5797652 130.933336,46.271435 130.4,45.9381 C130.066665,45.738099 129.733335,45.5297677 129.4,45.3131 C129.066665,45.0964322 128.716668,44.854768 128.35,44.5881 C127.983332,44.3547655 127.766667,44.038102 127.7,43.6381 C127.633333,43.238098 127.716666,42.8547685 127.95,42.4881 Z M169,48.5381 L165.05,48.5381 C164.616665,48.5381 164.258335,48.3881015 163.975,48.0881 C163.691665,47.7880985 163.55,47.4214355 163.55,46.9881 L163.55,13.5381 C163.55,13.1047645 163.691665,12.7381015 163.975,12.4381 C164.258335,12.1380985 164.616665,11.9881 165.05,11.9881 L169,11.9881 C169.433335,11.9881 169.799999,12.1380985 170.1,12.4381 C170.400002,12.7381015 170.55,13.1047645 170.55,13.5381 L170.55,46.9881 C170.55,47.4214355 170.400002,47.7880985 170.1,48.0881 C169.799999,48.3881015 169.433335,48.5381 169,48.5381 Z M178.95,42.4881 L181.05,39.3881 C181.283334,39.0214315 181.599998,38.804767 182,38.7381 C182.400002,38.671433 182.783332,38.7547655 183.15,38.9881 C184.650008,39.921438 186.116659,40.72143 187.55,41.3881 C189.45001,42.321438 191.499989,42.7881 193.7,42.7881 C194.833339,42.7881 195.833329,42.6381015 196.7,42.3381 C197.500004,42.1047655 198.23333,41.7381025 198.9,41.2381 C199.500003,40.771431 199.949998,40.2547695 200.25,39.6881 C200.550002,39.154764 200.7,38.588103 200.7,37.9881 C200.7,37.2880965 200.466669,36.6547695 200,36.0881 C199.566665,35.621431 198.966671,35.2047685 198.2,34.8381 C197.833332,34.6714325 197.433335,34.521434 197,34.3881 C196.566665,34.254766 196.083336,34.121434 195.55,33.9881 C195.049998,33.854766 194.541669,33.7381005 194.025,33.6381 C193.508331,33.5380995 192.966669,33.4381005 192.4,33.3381 C192.033332,33.271433 191.633336,33.1964337 191.2,33.1131 C190.766664,33.0297662 190.316669,32.9381005 189.85,32.8381 C188.883329,32.704766 187.883339,32.4547685 186.85,32.0881 C185.783328,31.7880985 184.766672,31.371436 183.8,30.8381 C182.799995,30.3380975 181.900004,29.688104 181.1,28.8881 C180.299996,28.154763 179.650003,27.221439 179.15,26.0881 C178.683331,24.9880945 178.45,23.7214405 178.45,22.2881 C178.45,20.1880895 178.883329,18.404774 179.75,16.9381 C180.583337,15.5714265 181.683327,14.454771 183.05,13.5881 C184.350007,12.8214295 185.849992,12.2547685 187.55,11.8881 C189.116675,11.554765 190.716658,11.3881 192.35,11.3881 C193.883341,11.3881 195.249994,11.488099 196.45,11.6881 C197.050003,11.7881005 197.624997,11.9130992 198.175,12.0631 C198.725003,12.2131007 199.266664,12.3714325 199.8,12.5381 C200.333336,12.738101 200.849998,12.9630987 201.35,13.2131 C201.850003,13.4631012 202.333331,13.721432 202.8,13.9881 C203.133335,14.188101 203.449998,14.388099 203.75,14.5881 C204.050002,14.788101 204.383332,14.988099 204.75,15.1881 C205.116669,15.454768 205.333333,15.788098 205.4,16.1881 C205.466667,16.588102 205.366668,16.9714315 205.1,17.3381 L203,20.3381 C202.733332,20.7047685 202.391669,20.921433 201.975,20.9881 C201.558331,21.054767 201.166669,20.9714345 200.8,20.7381 C199.499994,19.9047625 198.266673,19.2714355 197.1,18.8381 C195.533326,18.2047635 193.850009,17.8881 192.05,17.8881 C191.749999,17.8881 191.425002,17.9047665 191.075,17.9381 C190.724998,17.9714335 190.366669,18.021433 190,18.0881 C189.23333,18.2547675 188.500004,18.504765 187.8,18.8381 C187.466665,19.0047675 187.158335,19.188099 186.875,19.3881 C186.591665,19.588101 186.333335,19.821432 186.1,20.0881 C185.666665,20.621436 185.45,21.254763 185.45,21.9881 C185.45,22.721437 185.716664,23.3380975 186.25,23.8381 C186.783336,24.3381025 187.466663,24.754765 188.3,25.0881 C188.733336,25.2547675 189.174998,25.404766 189.625,25.5381 C190.075002,25.671434 190.549998,25.804766 191.05,25.9381 C191.550003,26.071434 192.041664,26.1880995 192.525,26.2881 C193.008336,26.3881005 193.483331,26.504766 193.95,26.6381 C194.316668,26.704767 194.699998,26.7880995 195.1,26.8881 C195.500002,26.9881005 195.933331,27.071433 196.4,27.1381 C196.866669,27.204767 197.349998,27.2964327 197.85,27.4131 C198.350003,27.5297672 198.849998,27.6714325 199.35,27.8381 C199.616668,27.904767 199.891665,27.9880995 200.175,28.0881 C200.458335,28.1881005 200.733332,28.2880995 201,28.3881 C201.400002,28.5547675 201.858331,28.771432 202.375,29.0381 C202.891669,29.304768 203.333332,29.571432 203.7,29.8381 C203.966668,30.0047675 204.208332,30.1797657 204.425,30.3631 C204.641668,30.5464342 204.849999,30.738099 205.05,30.9381 C205.883338,31.7714375 206.516665,32.7380945 206.95,33.8381 C207.450003,35.0047725 207.7,36.4047585 207.7,38.0381 C207.7,39.904776 207.36667,41.5547595 206.7,42.9881 C206.03333,44.388107 205.08334,45.5380955 203.85,46.4381 C202.583327,47.4047715 201.116675,48.1047645 199.45,48.5381 C197.683324,49.004769 195.80001,49.2381 193.8,49.2381 C191.866657,49.2381 190.18334,49.0881015 188.75,48.7881 C187.383327,48.5547655 186.066673,48.171436 184.8,47.6381 C184.199997,47.4047655 183.61667,47.1464347 183.05,46.8631 C182.483331,46.5797652 181.933336,46.271435 181.4,45.9381 C181.066665,45.738099 180.733335,45.5297677 180.4,45.3131 C180.066665,45.0964322 179.716669,44.854768 179.35,44.5881 C178.983332,44.3547655 178.766667,44.038102 178.7,43.6381 C178.633333,43.238098 178.716666,42.8547685 178.95,42.4881 Z"></path>
                    </g>
                </g>
                <path d="M162.6,4.7951 C162.6,5.1951 162.75,5.5451 163.05,5.8451 L165.85,8.6451 C166.15,8.9451 166.517,9.1121 166.95,9.1451 C167.383,9.1121 167.75,8.9451 168.05,8.6451 L170.85,5.8451 C171.15,5.5451 171.3,5.1951 171.3,4.7951 C171.267,4.3621 171.1,3.9951 170.8,3.6951 L168,0.8951 C167.7,0.5951 167.35,0.4451 166.95,0.4451 C166.517,0.4121 166.15,0.5451 165.85,0.8451 L163.05,3.6451 C162.75,3.9451 162.6,4.3281 162.6,4.7951" id="Fill-9" fill="#1F1E68"></path>
            </g>
        </g>
    </g>
</svg>